<svg xmlns="http://www.w3.org/2000/svg"  viewBox="0 0 40 40" width="40px" height="40px"><path fill="#b6dcfe" d="M20,1.5C9.754,1.5,1.5,9.754,1.5,20S9.754,38.5,20,38.5c10.245,0,18.5-8.254,18.5-18.5 S30.245,1.5,20,1.5z"/><path fill="#4788c7" d="M20,39C9.523,39,1,30.477,1,20S9.523,1,20,1s19,8.523,19,19S30.477,39,20,39z M20,2 C10.075,2,2,10.075,2,20s8.075,18,18,18s18-8.075,18-18S29.925,2,20,2z"/><path fill="#fff" d="M26.803,28.991c-0.27,0-0.541-0.134-0.811-0.27c-2.569-1.486-5.316-2.521-8.695-2.521	c-1.893,0-3.786,0.13-5.544,0.536c-0.27,0-0.676,0.135-0.811,0.135c-0.676,0-0.941-0.542-0.941-1.082	c0-0.675,0.265-1.082,0.806-1.215C12.969,24.031,15.133,24,17.43,24c3.786,0,6.938,1.069,9.912,2.83	c0.405,0.269,0.676,0.54,0.676,1.215C27.884,28.587,27.343,28.991,26.803,28.991z M28.648,24.031c-0.405,0-0.675-0.133-0.946-0.269	c-2.838-1.757-6.35-2.841-10.81-2.841c-2.164,0-4.191,0.271-5.679,0.678c-0.406,0.133-0.541,0.133-0.811,0.133	c-0.811,0-1.352-0.675-1.352-1.351c0-0.811,0.406-1.217,1.081-1.486C12.158,18.355,14.186,18,17.025,18	c4.597,0,8.649,1.031,12.164,3.193C29.729,21.462,30,22.004,30,22.544C30,23.356,29.459,24.031,28.648,24.031z M31.221,18.626	c-0.405,0-0.541-0.135-0.946-0.269c-3.245-1.893-8.111-2.976-12.844-2.976c-2.434,0-4.867,0.271-7.03,0.811	c-0.271,0-0.541,0.135-0.946,0.135c-0.946,0.135-1.622-0.675-1.622-1.622c0-0.946,0.541-1.486,1.216-1.622	C11.618,12.271,14.321,12,17.431,12c5.137,0,10.545,1.082,14.601,3.38c0.54,0.271,0.945,0.811,0.945,1.622	C32.844,17.949,32.167,18.626,31.221,18.626z"/></svg>