<svg xmlns="http://www.w3.org/2000/svg"  viewBox="0 0 40 40" width="40px" height="40px"><path fill="#4caf50" d="M38.5,20c0,10.216-8.284,18.5-18.5,18.5S1.5,30.216,1.5,20S9.784,1.5,20,1.5S38.5,9.784,38.5,20z"/><path fill="#ffc107" d="M20,1.5V20l7.4,3.7l-8.18,14.8c0.293,0,0.487,0,0.78,0c10.224,0,18.5-8.276,18.5-18.5	S30.224,1.5,20,1.5z"/><path fill="#b6dcfe" d="M38.5,20c0,10.216-8.284,18.5-18.5,18.5S1.5,30.216,1.5,20S9.784,1.5,20,1.5S38.5,9.784,38.5,20z"/><path fill="#dff0fe" d="M20,1.5V20l7,3.7l-8.18,14.8c0.293,0,0.887,0,1.18,0c10.224,0,18.5-8.276,18.5-18.5	S30.224,1.5,20,1.5z"/><path fill="#b6dcfe" d="M36.502,11.675L37,12H20v11.7l-2.775-0.925c0,0-12.47-13.241-12.398-13.344	C8.161,4.635,13.715,1.5,20,1.5C27.215,1.5,33.459,5.644,36.502,11.675z"/><path fill="#98ccfd" d="M5.125,8.6l8.18,13.747l4.624-1.042L5.125,8.6z"/><path fill="#98ccfd" d="M18.434,38.5l8.264-14.855l-3.784-2.72L18.434,38.5z"/><path fill="#b6dcfe" d="M36.525,13H20l-1.461,4.236L36.525,13z"/><path fill="#4788c7" d="M20,39C9.523,39,1,30.477,1,20S9.523,1,20,1s19,8.523,19,19S30.477,39,20,39z M20,2 C10.075,2,2,10.075,2,20s8.075,18,18,18s18-8.075,18-18S29.925,2,20,2z"/><rect width="16.873" height="1" x="20.25" y="12" fill="#4788c7"/><rect width=".999" height="17.895" x="22.354" y="21.925" fill="#4788c7" transform="rotate(26.967 22.852 30.87)"/><rect width="16.971" height="1" x=".944" y="16.099" fill="#4788c7" transform="rotate(60 9.43 16.599)"/><path fill="#fff" d="M20,27.5c-4.136,0-7.5-3.364-7.5-7.5s3.364-7.5,7.5-7.5s7.5,3.364,7.5,7.5S24.136,27.5,20,27.5z"/><path fill="#4788c7" d="M20,13c3.86,0,7,3.14,7,7s-3.14,7-7,7s-7-3.14-7-7S16.14,13,20,13 M20,12c-4.417,0-8,3.583-8,8 s3.583,8,8,8s8-3.583,8-8S24.417,12,20,12L20,12z"/><g><path fill="#98ccfd" d="M20,25.5c-3.033,0-5.5-2.468-5.5-5.5s2.467-5.5,5.5-5.5s5.5,2.468,5.5,5.5S23.033,25.5,20,25.5z"/><path fill="#fff" d="M20,15c2.757,0,5,2.243,5,5s-2.243,5-5,5s-5-2.243-5-5S17.243,15,20,15 M20,14c-3.315,0-6,2.685-6,6 s2.685,6,6,6s6-2.685,6-6S23.315,14,20,14L20,14z"/></g></svg>